<svg width="118" height="36" viewBox="0 0 118 36" fill="none" xmlns="http://www.w3.org/2000/svg">
<g clip-path="url(#clip0_3354_39358)">
<rect width="118" height="36" fill="white"/>
<path d="M22.1031 32.5781C21.7214 32.8355 21.3416 32.9291 20.9526 32.9291C20.7055 32.9291 20.4419 32.8715 20.2981 32.8175C20.2981 32.8175 19.6712 33.6329 18.9835 34.3781C18.2736 35.1521 17.5029 35.8379 17.5029 35.8379C17.8846 35.8487 17.9344 35.8559 18.3326 35.8559C21.1314 35.8559 23.7477 35.2385 26.0081 34.2143C26.0081 34.2143 24.7415 34.0181 22.671 32.8949C22.4645 32.7905 22.1031 32.5781 22.1031 32.5781Z" fill="#00B0E1"/>
<path d="M14.2649 24.4116C14.2778 24.534 14.2778 24.6438 14.2723 24.7104C14.2631 24.8274 14.2354 24.9588 14.1875 25.0902C14.1875 25.0902 15.2643 26.1414 16.6489 27.2592C17.8861 28.2834 19.6874 29.5308 19.6874 29.5308C19.9713 29.3004 20.3678 29.0826 20.9725 29.0736C21.2269 29.07 21.4943 29.133 21.6565 29.196C21.6565 29.196 23.2163 26.6796 24.1124 24.8922C24.7042 23.769 25.274 22.5918 25.7921 21.366C26.6439 19.4652 27.4201 17.0046 27.4201 17.0046C27.3224 16.9722 27.1251 16.884 27.0348 16.8282C26.8946 16.7418 26.8153 16.6932 26.69 16.5906C26.69 16.5906 24.1087 18.6156 20.6259 20.8188C16.7927 23.2434 14.2649 24.4116 14.2649 24.4116Z" fill="#00B0E1"/>
<path d="M26.2728 22.4621C24.7001 26.1125 22.4434 29.7233 22.4434 29.7233C22.7273 30.0401 22.9393 30.4757 22.9393 31.0013C22.9393 31.2335 22.8932 31.4243 22.8674 31.5179C22.8674 31.5179 23.2749 31.7465 23.4832 31.8617C25.823 33.1505 27.5745 33.4133 27.5745 33.4133C31.5939 31.1075 34.6416 27.3563 35.9415 22.8599C35.9415 22.8599 34.9716 19.2671 32.324 15.1325C31.9036 14.4485 31.415 13.7753 30.9117 13.0715L30.2719 13.6547C30.4655 13.9661 30.5983 14.3837 30.5983 14.8265C30.5983 16.0343 29.6377 17.0639 28.3692 17.1359C28.3673 17.1377 26.9458 21.0167 26.2728 22.4621Z" fill="#00B0E1"/>
<path d="M34.4648 16.2847C35.7149 18.5005 36.4413 20.5525 36.4413 20.5525C36.5648 19.7587 36.6275 18.7885 36.6275 17.9965C36.622 14.8933 35.8347 12.0457 34.4335 9.50952C34.4335 9.50952 33.6185 10.4977 31.8467 12.1861C31.8467 12.1861 33.318 14.1391 34.4648 16.2847Z" fill="#00B0E1"/>
<path d="M30.5285 12.5676C30.1966 12.1212 30.1727 12.123 29.8094 11.6658C29.8094 11.6658 29.7099 12.168 29.6288 12.5514C29.5974 12.681 29.5439 12.9042 29.5439 12.9042C29.6859 12.9996 29.7578 13.0572 29.874 13.1652L30.5285 12.5676Z" fill="#00B0E1"/>
<path d="M34.1106 8.95515C33.2754 7.57635 32.1341 6.09495 30.5411 4.69995C30.5411 4.69995 30.5688 6.63675 30.2185 9.20715C30.1761 9.49875 30.1484 9.70215 30.0986 10.01C30.0986 10.01 31.0279 11.099 31.4704 11.6858C31.4704 11.6858 32.1729 11.0018 32.844 10.3088C33.493 9.63555 34.1106 8.95515 34.1106 8.95515Z" fill="#00B0E1"/>
<path d="M29.5353 4.75732C29.0984 4.90672 27.7321 5.42332 27.7321 5.42332C27.8133 5.62312 27.8759 5.87512 27.8815 6.16852C27.8907 6.69412 27.7137 7.08832 27.5791 7.30792C27.5791 7.30792 28.0493 7.79032 28.8845 8.68852C29.0689 8.88112 29.1168 8.92792 29.2661 9.08812C29.2661 9.08812 29.4118 7.98652 29.4911 6.73732C29.5372 6.04612 29.5409 5.13712 29.5353 4.75732Z" fill="#00B0E1"/>
<path d="M27.4696 4.94818C27.0917 4.42078 26.4169 4.02478 25.6591 4.02478C25.0894 4.02478 24.6856 4.20838 24.4016 4.39018C24.4016 4.39018 22.0767 2.43898 19.6816 0.946782L20.314 0.246582C23.6918 0.602982 26.8667 1.86658 29.507 3.86098L29.5199 4.15618C29.164 4.28578 27.4696 4.94818 27.4696 4.94818Z" fill="#00B0E1"/>
<path d="M12.3604 11.7846C12.5576 11.8872 12.8213 12.0834 12.9909 12.2706C12.9909 12.2706 13.8944 11.691 14.4032 11.3778C18.2954 8.9352 23.4524 6.6564 23.4524 6.6564C23.421 6.5178 23.4026 6.3342 23.4044 6.1884C23.4099 5.8608 23.4837 5.5926 23.5519 5.4288C23.5519 5.4288 21.4095 3.6252 18.8411 1.9458C18.8411 1.9458 17.2168 3.8448 15.5851 6.309C13.9534 8.6274 12.3604 11.7846 12.3604 11.7846Z" fill="#00B0E1"/>
<path d="M13.6451 13.9212C13.6322 15.2928 12.5075 16.3584 11.1431 16.3584C10.8923 16.3584 10.6029 16.3134 10.3779 16.2432C10.3779 16.2432 9.64781 18.0594 9.24219 19.3806C9.24219 19.3806 10.4074 21.0402 12.395 23.2506C12.395 23.2506 12.5812 23.1858 12.8283 23.1858C12.8412 23.1858 12.8799 23.1876 12.8928 23.1876C13.3206 23.202 13.7612 23.4198 14.0286 23.8086C14.0286 23.8086 16.9859 22.3596 20.0742 20.4174C23.0998 18.5148 26.2471 16.1532 26.2471 16.1532C26.0056 15.7716 25.8636 15.3252 25.8581 14.8536C25.8452 13.5828 26.8758 12.5406 28.1904 12.5172C28.3434 12.5136 28.4928 12.528 28.655 12.555C28.655 12.555 28.9021 11.3742 29.0127 10.737C29.0127 10.737 28.3305 9.96476 27.77 9.42116C27.3865 9.00176 26.9791 8.59676 26.5882 8.19356C26.5882 8.19356 26.1752 8.40236 25.6368 8.39696C24.761 8.38976 23.9867 7.90556 23.6142 7.13696C23.6142 7.13696 18.236 9.68936 15.3081 11.4786C14.6057 11.907 14.0267 12.276 13.3316 12.7368C13.3335 12.7368 13.6506 13.2408 13.6451 13.9212Z" fill="#00B0E1"/>
<path d="M8.75586 20.9395C8.75586 20.9395 8.40186 22.1437 8.11239 23.3911C7.82661 24.6277 7.60352 25.9039 7.60352 25.9039C7.8598 26.0011 8.0958 26.1847 8.24883 26.3575C8.24883 26.3575 8.73558 26.1703 9.06008 26.0371C9.83076 25.7239 11.4459 25.0201 11.4459 25.0201C11.4311 24.9805 11.3814 24.8131 11.3814 24.5989C11.3814 24.4639 11.398 24.3577 11.433 24.2263C11.4311 24.2263 10.0483 22.7287 8.75586 20.9395Z" fill="#00B0E1"/>
<path d="M16.2987 35.7481C12.8915 35.3737 9.82164 34.1173 7.23671 32.1931C7.23671 32.1931 7.09105 31.1491 7.2238 29.1025C8.01846 28.9837 8.67483 28.2943 8.66377 27.4393C8.66008 27.1531 8.57342 26.9173 8.57342 26.9173C8.96614 26.7733 8.93664 26.7769 9.36255 26.6041C10.113 26.2999 10.939 25.9507 11.7779 25.5781C11.7779 25.5781 11.8535 25.6555 11.9051 25.6933C12.0507 25.8013 12.283 25.9777 12.7219 26.0119C12.9265 26.0281 13.1404 25.9831 13.1404 25.9831C15.0542 27.8335 17.1008 29.3797 19.0164 30.6775C19.0164 30.6775 18.9777 30.8863 18.9925 31.1347C19.0367 31.8583 19.5087 32.3083 19.5087 32.3083C17.6207 34.7311 16.402 35.7607 16.402 35.7607L16.2987 35.7481Z" fill="#00B0E1"/>
<path d="M6.13612 31.3039C5.24191 30.5209 4.32372 29.5579 3.49219 28.4329C3.49219 28.4329 4.04716 28.3339 4.56341 28.1971C5.02619 28.0837 5.33409 27.9937 5.33409 27.9937C5.465 28.3771 5.76184 28.7353 6.17669 28.9405C6.17669 28.9405 6.13612 29.6929 6.11584 30.0871C6.09556 30.4813 6.13612 31.3039 6.13612 31.3039Z" fill="#00B0E1"/>
<path d="M3.10627 27.8929C3.10627 27.8929 3.83455 27.7345 4.45959 27.5797C4.9574 27.4555 5.24318 27.3655 5.24318 27.3655C5.27821 26.6293 5.81474 25.9993 6.54487 25.8265C6.54487 25.8265 7.02056 22.8313 7.9959 19.8721C7.9959 19.8721 7.76359 19.5463 7.38562 18.9631C6.97999 18.3367 6.56699 17.6653 6.56699 17.6653C2.98459 20.4841 0.666992 22.6279 0.666992 22.6279C1.18324 24.5197 2.02399 26.3071 3.10627 27.8929Z" fill="#00B0E1"/>
<path d="M5.12727 15.1038C5.44993 15.7356 5.98646 16.7274 6.25565 17.1432L5.19549 18L3.53427 19.3788L2.01687 20.6928L0.521586 22.0572C0.209992 20.7522 0.0458984 19.3932 0.0458984 17.9964C0.0458984 14.292 1.19824 10.962 2.98484 8.29077C2.98484 8.28897 3.05674 11.1132 5.12727 15.1038Z" fill="#00B0E1"/>
<path d="M9.30332 15.5718C8.62666 16.0722 8.18048 16.4124 7.55176 16.8984C7.55176 16.8984 8.07538 17.7228 8.50682 18.3438C8.50682 18.3438 9.05995 16.7688 9.49323 15.7518C9.49138 15.7518 9.38998 15.6672 9.30332 15.5718Z" fill="#00B0E1"/>
<path d="M16.0916 0.277344C10.9568 0.853344 6.6203 3.57854 3.77539 7.19294C3.77539 7.19294 3.92842 10.0315 5.77402 13.7539C6.25155 14.6791 6.41564 15.0193 7.23058 16.3783L8.94527 15.0823C8.73323 14.7061 8.64105 14.3065 8.64289 13.9123C8.64658 12.4795 9.8192 11.4733 11.0988 11.4751C11.3108 11.4751 11.4417 11.4913 11.4417 11.4913C11.5486 11.2771 11.7146 10.9747 11.827 10.7641C13.125 8.33594 14.482 6.33074 15.7358 4.53794C16.7535 3.07994 18.0792 1.45814 18.0792 1.45814C16.8457 0.684144 16.0916 0.277344 16.0916 0.277344Z" fill="#00B0E1"/>
<path d="M19.169 0.162043L18.9053 0.469843L18.3633 0.144043C18.6952 0.144043 18.8537 0.147643 19.169 0.162043Z" fill="#00B0E1"/>
<path opacity="0.5" d="M6.13629 31.3039C6.13629 31.3039 6.1066 30.8665 6.11773 30.2383L6.13629 31.3039Z" fill="#00B0E1"/>
<path d="M57.1726 12.3858L57.0878 12.8538C56.7209 14.895 55.2514 16.245 54.206 16.7688C54.855 17.1828 55.8156 18.423 55.8156 20.0772C55.8156 20.2986 55.788 20.5182 55.7585 20.7666L55.7013 21.1248C54.8827 26.3358 50.9002 27.495 45.4206 27.495C43.9806 27.495 41.2961 27.3852 39.9981 27.1638C38.9527 26.9712 38.501 26.6958 38.501 25.812C38.501 25.5906 38.5286 25.344 38.5858 25.0668L41.4952 8.87938C41.7497 7.39078 42.2862 7.00378 43.6413 6.81118C44.8564 6.61858 47.7087 6.47998 49.121 6.47998C53.8944 6.47998 57.2833 7.72018 57.2833 11.223C57.2851 11.5866 57.2574 11.9718 57.1726 12.3858ZM48.1051 18.729H45.3653L44.6314 22.9482H46.9472C49.1505 22.9482 49.9414 22.1202 50.1959 20.9628L50.253 20.7144C50.2807 20.5488 50.3102 20.3832 50.3102 20.2176C50.3083 19.3626 49.687 18.729 48.1051 18.729ZM49.0085 11.0358C48.7817 11.0358 46.9749 11.0628 46.7776 11.0628L46.0438 14.9778H48.7836C50.6476 14.9778 51.3814 14.2056 51.4957 13.2408L51.5529 12.7998C51.5805 12.69 51.5805 12.5784 51.5805 12.4686C51.5787 11.5596 50.9868 11.0358 49.0085 11.0358Z" fill="black"/>
<path d="M75.0519 15.5844L74.5154 18.4248C73.245 25.1262 69.4598 27.4968 64.2051 27.4968C60.2226 27.4968 56.9463 25.3188 56.9463 20.6586C56.9463 19.9692 57.0311 19.224 57.1731 18.4248L57.7096 15.5844C59.0371 8.60764 63.1321 6.48364 68.0199 6.48364C71.9452 6.48364 75.2787 8.49604 75.2787 13.2678C75.2769 13.986 75.2215 14.7582 75.0519 15.5844ZM67.1146 11.421C65.1381 11.421 64.0927 12.6342 63.5266 15.5844L62.9901 18.4248C62.8776 19.0872 62.7928 19.638 62.7928 20.1348C62.7928 21.8448 63.5838 22.5612 65.1086 22.5612C67.0851 22.5612 68.1305 21.375 68.6965 18.4248L69.233 15.5844C69.3455 14.922 69.4303 14.3712 69.4303 13.8744C69.4303 12.1662 68.6394 11.421 67.1146 11.421Z" fill="black"/>
<path d="M89.0035 19.0314L91.7433 26.532C91.771 26.5878 91.771 26.6706 91.771 26.7246C91.771 27.0288 91.5442 27.2484 91.2068 27.2484H86.2361C85.9245 27.2484 85.8692 26.973 85.7843 26.6976L83.4114 19.9692C82.7901 19.9692 82.1964 19.9692 81.5751 19.9134L80.36 26.6976C80.3029 27.0018 79.9931 27.2484 79.6815 27.2484H75.1054C74.8233 27.2484 74.626 27.0558 74.626 26.7804C74.626 26.7534 74.626 26.7246 74.626 26.6976L77.8747 8.66335C78.1014 7.34035 78.5808 7.03615 79.8235 6.84355C80.9814 6.67795 83.2418 6.48535 85.7548 6.48535C90.2462 6.48535 93.635 8.05675 93.635 11.862C93.6369 15.0336 92.1674 17.8182 89.0035 19.0314ZM85.3326 11.1996C84.5693 11.1996 83.6106 11.2266 83.1293 11.2554L82.3384 15.6402C82.65 15.6672 82.9874 15.6672 83.3266 15.6672C83.6659 15.6672 84.0328 15.6672 84.3997 15.6672C86.6306 15.6672 87.8457 14.8392 87.8457 12.6612C87.8457 11.6424 87.1119 11.1996 85.3326 11.1996Z" fill="black"/>
<path d="M102.335 7.28454L98.832 26.6975C98.7749 27.0017 98.4651 27.2483 98.1535 27.2483H93.522C93.2399 27.2483 93.0703 27.0557 93.0703 26.8073C93.0703 26.7515 93.0703 26.7245 93.0703 26.6975L96.5734 7.28454C96.6306 6.98034 96.9127 6.76074 97.2224 6.76074H101.854C102.136 6.76074 102.333 6.92634 102.333 7.20174C102.335 7.22874 102.335 7.25754 102.335 7.28454Z" fill="black"/>
<path d="M117.954 7.69846L117.333 11.1455C117.276 11.4497 117.051 11.6693 116.739 11.6693C116.711 11.6693 116.711 11.6693 116.682 11.6693C115.552 11.5865 112.36 11.3111 110.327 11.3111C109.536 11.3111 108.717 11.5595 108.717 12.4685C108.717 12.8555 108.999 13.1021 109.96 13.6547L113.406 15.6401C115.439 16.7975 116.23 18.3149 116.23 20.2445C116.23 25.4015 111.796 27.4967 106.993 27.4967C104.677 27.4967 102.869 27.1925 101.429 26.7803C101.174 26.6975 100.949 26.5589 100.949 26.3123C100.949 26.2853 100.949 26.2565 100.949 26.2295L101.543 22.8383C101.6 22.5341 101.853 22.2875 102.192 22.2875C102.192 22.2875 102.22 22.2875 102.249 22.2875C103.407 22.3973 106.401 22.7015 107.898 22.7015C109.029 22.7015 109.96 22.3163 109.96 21.0743C109.96 20.6603 109.678 20.3579 108.859 19.8341L105.216 17.4905C103.577 16.4429 102.786 14.6501 102.786 12.9401C102.786 7.97566 106.768 6.48706 111.259 6.48706C113.49 6.48706 116.429 6.84526 117.53 7.17646C117.757 7.25926 117.954 7.36906 117.954 7.61746C117.954 7.64266 117.954 7.67146 117.954 7.69846Z" fill="black"/>
</g>
<defs>
<clipPath id="clip0_3354_39358">
<rect width="118" height="36" fill="white"/>
</clipPath>
</defs>
</svg>
